<?xml version="1.0" encoding="utf-8"?>
<!-- Generator: Adobe Illustrator 26.0.3, SVG Export Plug-In . SVG Version: 6.00 Build 0)  -->
<svg version="1.1" id="Calque_1" xmlns="http://www.w3.org/2000/svg" xmlns:xlink="http://www.w3.org/1999/xlink" x="0px" y="0px"
	 viewBox="0 0 24 24" style="enable-background:new 0 0 24 24;" xml:space="preserve">
<style type="text/css">
	.st0{fill:#33CC99;}
	.st1{fill:#FFFFFF;}
</style>
<circle class="st0" cx="12" cy="12" r="12"/>
<path class="st1" d="M7.9,12c-0.4-0.4-1-0.4-1.4,0c-0.4,0.4-0.4,1,0,1.4L7.9,12z M10,15.6l-0.7,0.7c0.2,0.2,0.5,0.3,0.7,0.3
	c0.3,0,0.5-0.1,0.7-0.3L10,15.6z M17.5,9.1c0.4-0.4,0.4-1,0-1.4c-0.4-0.4-1-0.4-1.4,0L17.5,9.1z M6.5,13.4l2.8,2.9l1.5-1.4L7.9,12
	L6.5,13.4z M10.7,16.3l6.8-7.2l-1.5-1.4l-6.8,7.2L10.7,16.3z"/>
</svg>
